[b][color=black]Revolution 2012 S01E03 HDTV [x264] [mp4]-Sebastian[Ub3r]

Format                           : MPEG-4
Format profile                   : Base Media / Version 2
Codec ID                         : mp42
File size                        : 195 MiB
Duration                         : 42mn 48s
Overall bit rate                 : 635 Kbps
Encoded date                     : UTC 2012-10-03 14:31:07
Tagged date                      : UTC 2012-10-03 14:40:33

Video
ID                               : 1
Format                           : AVC
Format/Info                      : Advanced Video Codec
Format profile                   : Main@L3.0
Format settings, CABAC           : Yes
Format settings, ReFrames        : 4 frames
Codec ID                         : avc1
Codec ID/Info                    : Advanced Video Coding
Duration                         : 42mn 48s
Bit rate mode                    : Variable
Bit rate                         : 518 Kbps
Width                            : 640 pixels
Height                           : 360 pixels
Display aspect ratio             : 16:9
Frame rate mode                  : Variable
Frame rate                       : 23.976 fps
Minimum frame rate               : 23.974 fps
Maximum frame rate               : 90 000.000 fps
Color space                      : YUV
Chroma subsampling               : 4:2:0
Bit depth                        : 8 bits
Scan type                        : Progressive
Bits/(Pixel*Frame)               : 0.094
Stream size                      : 159 MiB (82%)
Writing library                  : x264 core 120
Encoded date                     : UTC 2012-10-03 14:31:07
Tagged date                      : UTC 2012-10-03 14:40:32

Audio
ID                               : 2
Format                           : AAC
Format/Info                      : Advanced Audio Codec
Format profile                   : LC
Codec ID                         : 40
Duration                         : 42mn 48s
Bit rate mode                    : Variable
Bit rate                         : 112 Kbps
Maximum bit rate                 : 216 Kbps
Channel(s)                       : 2 channels
Channel positions                : Front: L R
Sampling rate                    : 48.0 KHz
Compression mode                 : Lossy
Stream size                      : 34.3 MiB (18%)
Encoded date                     : UTC 2012-10-03 14:31:07
Tagged date                      : UTC 2012-10-03 14:40:31

Screenshots[/color][/b]
[img]http://imageshack.us/a/img826/2339/revolution2012s01e03hdt.jpg[/img]

[img]http://kastatic.com/i2/users/133df62bbf28e62494bb17fe11078f1a.gif[/img][img]http://kastatic.com/i2/users/133df62bbf28e62494bb17fe11078f1a.gif[/img]